<?xml version="1.0" encoding="UTF-8"?>
<!DOCTYPE svg PUBLIC "-//W3C//DTD SVG 1.1//EN" "http://www.w3.org/Graphics/SVG/1.1/DTD/svg11.dtd">
<svg xmlns="http://www.w3.org/2000/svg" version="1.1" width="603px" height="707px" style="shape-rendering:geometricPrecision; text-rendering:geometricPrecision; image-rendering:optimizeQuality; fill-rule:evenodd; clip-rule:evenodd" xmlns:xlink="http://www.w3.org/1999/xlink">
<g><path style="opacity:0.999" fill="#1272b8" d="M 0.5,4.5 C 200.5,4.5 400.5,4.5 600.5,4.5C 584.382,212.914 567.549,421.247 550,629.5C 467.004,654.998 383.838,679.998 300.5,704.5C 216.889,679.796 133.389,654.796 50,629.5C 33.1172,421.19 16.6172,212.857 0.5,4.5 Z"/></g>
<g><path style="opacity:1" fill="#33aadd" d="M 300.5,579.5 C 350.138,562.843 399.805,546.176 449.5,529.5C 458.749,450.59 467.416,371.59 475.5,292.5C 426.5,291.833 377.5,291.167 328.5,290.5C 381.555,270.37 434.555,250.036 487.5,229.5C 492.114,200.539 496.447,171.539 500.5,142.5C 434.002,141.501 367.335,141.168 300.5,141.5C 300.5,112.5 300.5,83.5 300.5,54.5C 383.836,54.1667 467.169,54.5 550.5,55.5C 533.681,238.504 516.681,421.504 499.5,604.5C 433.275,625.575 366.942,646.242 300.5,666.5C 300.5,637.5 300.5,608.5 300.5,579.5 Z"/></g>
<g><path style="opacity:1" fill="#8dc2e1" d="M 300.5,141.5 C 367.335,141.168 434.002,141.501 500.5,142.5C 371.162,141.835 242.162,142.502 113.5,144.5C 112.596,143.791 112.263,142.791 112.5,141.5C 175.167,141.5 237.833,141.5 300.5,141.5 Z"/></g>
<g><path style="opacity:1" fill="#fefefe" d="M 500.5,142.5 C 496.447,171.539 492.114,200.539 487.5,229.5C 434.555,250.036 381.555,270.37 328.5,290.5C 327.711,290.783 327.044,291.283 326.5,292C 376.166,292.5 425.832,292.667 475.5,292.5C 467.416,371.59 458.749,450.59 449.5,529.5C 399.805,546.176 350.138,562.843 300.5,579.5C 250.862,562.843 201.195,546.176 151.5,529.5C 146.573,487.902 142.24,446.235 138.5,404.5C 163.5,404.5 188.5,404.5 213.5,404.5C 216.857,425.286 220.857,445.953 225.5,466.5C 250.15,475.828 275.15,484.161 300.5,491.5C 325.5,483.5 350.5,475.5 375.5,467.5C 379.911,433.882 383.911,400.215 387.5,366.5C 304.167,366.5 220.833,366.5 137.5,366.5C 134.153,337.736 130.153,309.069 125.5,280.5C 125.833,280.167 126.167,279.833 126.5,279.5C 184.424,260.854 242.424,242.52 300.5,224.5C 307.499,222.5 314.499,220.5 321.5,218.5C 322.289,218.217 322.956,217.717 323.5,217C 257.501,216.5 191.501,216.333 125.5,216.5C 121.715,192.454 117.715,168.454 113.5,144.5C 242.162,142.502 371.162,141.835 500.5,142.5 Z"/></g>
<g><path style="opacity:1" fill="#89bbdd" d="M 125.5,216.5 C 191.501,216.333 257.501,216.5 323.5,217C 322.956,217.717 322.289,218.217 321.5,218.5C 314.687,217.509 307.687,217.175 300.5,217.5C 241.998,217.832 183.664,217.499 125.5,216.5 Z"/></g>
<g><path style="opacity:1" fill="#3eadde" d="M 300.5,217.5 C 307.687,217.175 314.687,217.509 321.5,218.5C 314.499,220.5 307.499,222.5 300.5,224.5C 300.5,222.167 300.5,219.833 300.5,217.5 Z"/></g>
<g><path style="opacity:0.267" fill="#99d5ee" d="M 328.5,290.5 C 377.5,291.167 426.5,291.833 475.5,292.5C 425.832,292.667 376.166,292.5 326.5,292C 327.044,291.283 327.711,290.783 328.5,290.5 Z"/></g>
<g><path style="opacity:1" fill="#38abdd" d="M 137.5,366.5 C 220.833,366.5 304.167,366.5 387.5,366.5C 383.911,400.215 379.911,433.882 375.5,467.5C 350.5,475.5 325.5,483.5 300.5,491.5C 300.5,450.167 300.5,408.833 300.5,367.5C 245.997,367.832 191.664,367.499 137.5,366.5 Z"/></g>
</svg>
