<?xml version="1.0" encoding="UTF-8"?>
<!DOCTYPE svg PUBLIC "-//W3C//DTD SVG 1.1//EN" "http://www.w3.org/Graphics/SVG/1.1/DTD/svg11.dtd">
<svg xmlns="http://www.w3.org/2000/svg" version="1.1" width="512px" height="512px" style="shape-rendering:geometricPrecision; text-rendering:geometricPrecision; image-rendering:optimizeQuality; fill-rule:evenodd; clip-rule:evenodd" xmlns:xlink="http://www.w3.org/1999/xlink">
<g><path style="opacity:1" fill="#dc6c76" d="M 511.5,106.5 C 511.5,205.833 511.5,305.167 511.5,404.5C 509.607,425.907 498.274,439.74 477.5,446C 403.521,447.153 329.521,447.653 255.5,447.5C 181.479,447.653 107.479,447.153 33.5,446C 12.7262,439.74 1.39286,425.907 -0.5,404.5C -0.5,305.167 -0.5,205.833 -0.5,106.5C 1.39286,85.0929 12.7262,71.2595 33.5,65C 107.479,63.8474 181.479,63.3474 255.5,63.5C 329.521,63.3474 403.521,63.8474 477.5,65C 498.274,71.2595 509.607,85.0929 511.5,106.5 Z M 38.5,84.5 C 183.64,84.0017 328.64,84.5017 473.5,86C 406.466,148.035 339.133,209.702 271.5,271C 260.833,279.667 250.167,279.667 239.5,271C 171.867,209.702 104.534,148.035 37.5,86C 38.056,85.6174 38.3893,85.1174 38.5,84.5 Z M 21.5,99.5 C 78.5547,150.702 135.221,202.369 191.5,254.5C 134.592,305.736 78.2585,357.736 22.5,410.5C 21.914,410.291 21.414,409.957 21,409.5C 20.1712,306.127 20.3379,202.793 21.5,99.5 Z M 488.5,99.5 C 489.222,99.9175 489.722,100.584 490,101.5C 490.667,204.167 490.667,306.833 490,409.5C 489.586,409.957 489.086,410.291 488.5,410.5C 432.741,357.736 376.408,305.736 319.5,254.5C 375.676,202.593 432.009,150.926 488.5,99.5 Z M 206.5,268.5 C 214.802,275.659 223.135,282.826 231.5,290C 247.5,300 263.5,300 279.5,290C 287.76,282.951 295.927,275.784 304,268.5C 362.033,319.193 418.867,371.36 474.5,425C 401.581,426.164 328.581,426.664 255.5,426.5C 182.419,426.664 109.419,426.164 36.5,425C 92.1621,371.495 148.829,319.328 206.5,268.5 Z"/></g>
</svg>
