<?xml version="1.0" encoding="UTF-8"?>
<!DOCTYPE svg PUBLIC "-//W3C//DTD SVG 1.1//EN" "http://www.w3.org/Graphics/SVG/1.1/DTD/svg11.dtd">
<svg xmlns="http://www.w3.org/2000/svg" version="1.1" width="240px" height="240px" style="shape-rendering:geometricPrecision; text-rendering:geometricPrecision; image-rendering:optimizeQuality; fill-rule:evenodd; clip-rule:evenodd" xmlns:xlink="http://www.w3.org/1999/xlink">
<g><path style="opacity:1" fill="#dc6c76" d="M 108.5,7.5 C 159.389,5.51696 197.222,26.517 222,70.5C 241.139,113.509 237.139,154.176 210,192.5C 196.117,210.028 178.617,222.528 157.5,230C 155.167,230.667 152.833,230.667 150.5,230C 149.874,229.25 149.374,228.416 149,227.5C 148.667,213.5 148.333,199.5 148,185.5C 146.977,181.121 145.144,177.121 142.5,173.5C 157.779,171.941 170.945,165.941 182,155.5C 192.428,139.611 195.761,122.278 192,103.5C 190.173,96.3411 186.673,90.1744 181.5,85C 184.625,77.3586 185.125,69.5252 183,61.5C 182.402,58.6922 181.235,56.1922 179.5,54C 175.064,53.7523 170.73,54.419 166.5,56C 160.041,58.9701 153.708,62.1368 147.5,65.5C 129,61.5115 110.5,61.5115 92,65.5C 86.638,62.5679 81.138,59.7346 75.5,57C 70.119,54.5848 64.619,53.7515 59,54.5C 55.1267,64.1806 54.6267,74.014 57.5,84C 47.3318,97.5134 43.8318,112.68 47,129.5C 49.3658,149.195 59.8658,162.361 78.5,169C 84.6959,170.973 91.0293,172.306 97.5,173C 94.0841,177.498 91.7508,182.498 90.5,188C 74.7775,194.095 63.2775,189.595 56,174.5C 49.9652,167.025 42.7985,165.192 34.5,169C 38.1315,172.926 41.9648,176.76 46,180.5C 49.3333,186.5 52.6667,192.5 56,198.5C 59.5213,201.844 63.6879,204.011 68.5,205C 75.7471,205.812 82.9138,205.646 90,204.5C 90.6667,212.5 90.6667,220.5 90,228.5C 87.5027,230.478 84.6693,230.978 81.5,230C 33.0334,210.445 7.36675,174.445 4.5,122C 6.49304,78.992 25.493,45.992 61.5,23C 76.3335,14.8883 92.0002,9.72167 108.5,7.5 Z"/></g>
</svg>
