<?xml version="1.0" encoding="UTF-8"?>
<!DOCTYPE svg PUBLIC "-//W3C//DTD SVG 1.1//EN" "http://www.w3.org/Graphics/SVG/1.1/DTD/svg11.dtd">
<svg xmlns="http://www.w3.org/2000/svg" version="1.1" width="525px" height="530px" style="shape-rendering:geometricPrecision; text-rendering:geometricPrecision; image-rendering:optimizeQuality; fill-rule:evenodd; clip-rule:evenodd" xmlns:xlink="http://www.w3.org/1999/xlink">
<g><path style="opacity:1" fill="#f6de1e" d="M 16.5,7.5 C 180.5,7.33333 344.5,7.5 508.5,8C 513,9.83333 516.167,13 518,17.5C 518.667,181.5 518.667,345.5 518,509.5C 516.167,514 513,517.167 508.5,519C 344.5,519.667 180.5,519.667 16.5,519C 12,517.167 8.83333,514 7,509.5C 6.33333,345.5 6.33333,181.5 7,17.5C 9.02229,12.98 12.189,9.6467 16.5,7.5 Z"/></g>
<g><path style="opacity:1" fill="#010100" d="M 363.5,209.5 C 379.69,207.993 395.356,210.159 410.5,216C 425.111,222.945 436.111,233.611 443.5,248C 431.333,256.167 419.167,264.333 407,272.5C 396.858,253.455 381.692,247.621 361.5,255C 351.384,264.272 349.884,274.772 357,286.5C 360.167,289 363.333,291.5 366.5,294C 383.167,301.667 399.833,309.333 416.5,317C 457.987,340.464 468.821,373.964 449,417.5C 437.344,433.76 421.51,443.593 401.5,447C 366.885,454.225 335.885,446.892 308.5,425C 301.283,417.894 295.283,409.894 290.5,401C 303.584,393.041 316.751,385.207 330,377.5C 347.414,405.528 371.248,413.028 401.5,400C 410.837,392.175 413.004,382.675 408,371.5C 402.087,363.948 394.587,358.448 385.5,355C 366.571,347.701 348.571,338.701 331.5,328C 311.27,311.338 302.77,289.838 306,263.5C 310.392,239.106 324.225,222.606 347.5,214C 353.035,212.786 358.368,211.286 363.5,209.5 Z"/></g>
<g><path style="opacity:1" fill="#000000" d="M 217.5,210.5 C 233.5,210.5 249.5,210.5 265.5,210.5C 265.667,268.501 265.5,326.501 265,384.5C 262.953,416.459 246.453,436.292 215.5,444C 184.866,451.271 158.032,444.437 135,423.5C 130.107,416.938 125.607,410.104 121.5,403C 134.414,395.96 147.247,388.793 160,381.5C 164.538,389.755 170.371,396.922 177.5,403C 186.686,407.241 196.019,407.574 205.5,404C 212.205,400.099 216.038,394.266 217,386.5C 217.5,327.834 217.667,269.168 217.5,210.5 Z"/></g>
</svg>
