<?xml version="1.0" encoding="UTF-8"?>
<!DOCTYPE svg PUBLIC "-//W3C//DTD SVG 1.1//EN" "http://www.w3.org/Graphics/SVG/1.1/DTD/svg11.dtd">
<svg xmlns="http://www.w3.org/2000/svg" version="1.1" width="48px" height="48px" style="shape-rendering:geometricPrecision; text-rendering:geometricPrecision; image-rendering:optimizeQuality; fill-rule:evenodd; clip-rule:evenodd" xmlns:xlink="http://www.w3.org/1999/xlink">
<g><path style="opacity:1" fill="#dc6c76" d="M 8.5,5.5 C 18.5056,5.33352 28.5056,5.50019 38.5,6C 39.3081,6.30762 39.9747,6.80762 40.5,7.5C 41.6423,17.7863 41.809,28.1196 41,38.5C 40.1667,39.3333 39.3333,40.1667 38.5,41C 28.5,41.6667 18.5,41.6667 8.5,41C 7.58377,40.6258 6.75044,40.1258 6,39.5C 5.33333,29.1667 5.33333,18.8333 6,8.5C 6.69794,7.30943 7.53128,6.30943 8.5,5.5 Z"/></g>
<g><path style="opacity:1" fill="#fefffe" d="M 12.5,11.5 C 16.1612,11.3501 17.1612,12.8501 15.5,16C 11.7071,16.4866 10.7071,14.9866 12.5,11.5 Z"/></g>
<g><path style="opacity:1" fill="#fefffe" d="M 11.5,18.5 C 13.1667,18.5 14.8333,18.5 16.5,18.5C 16.5,24.1667 16.5,29.8333 16.5,35.5C 14.8333,35.5 13.1667,35.5 11.5,35.5C 11.5,29.8333 11.5,24.1667 11.5,18.5 Z"/></g>
<g><path style="opacity:1" fill="#fefffe" d="M 19.5,18.5 C 21.7659,18.1412 23.5993,18.8078 25,20.5C 27.9253,17.9406 30.9253,17.9406 34,20.5C 35.3885,25.3722 35.8885,30.3722 35.5,35.5C 33.8333,35.5 32.1667,35.5 30.5,35.5C 30.6655,31.4862 30.4988,27.4862 30,23.5C 28.3333,22.1667 26.6667,22.1667 25,23.5C 24.5012,27.4862 24.3345,31.4862 24.5,35.5C 22.8333,35.5 21.1667,35.5 19.5,35.5C 19.5,29.8333 19.5,24.1667 19.5,18.5 Z"/></g>
</svg>
