<?xml version="1.0" encoding="UTF-8"?>
<!DOCTYPE svg PUBLIC "-//W3C//DTD SVG 1.1//EN" "http://www.w3.org/Graphics/SVG/1.1/DTD/svg11.dtd">
<svg xmlns="http://www.w3.org/2000/svg" version="1.1" width="800px" height="800px" style="shape-rendering:geometricPrecision; text-rendering:geometricPrecision; image-rendering:optimizeQuality; fill-rule:evenodd; clip-rule:evenodd" xmlns:xlink="http://www.w3.org/1999/xlink">
<g><path style="opacity:0.994" fill="#000000" d="M 364.5,-0.5 C 387.5,-0.5 410.5,-0.5 433.5,-0.5C 571.571,15.2431 676.404,82.2431 748,200.5C 776.139,250.748 793.306,304.415 799.5,361.5C 799.5,386.833 799.5,412.167 799.5,437.5C 783.909,565.148 723.242,664.981 617.5,737C 614.91,738.445 612.243,739.612 609.5,740.5C 610.894,738.292 612.894,736.792 615.5,736C 510,576.5 404.5,417 299,257.5C 296.406,253.953 292.906,252.119 288.5,252C 279.833,251.333 271.167,251.333 262.5,252C 257.288,253.017 253.455,255.851 251,260.5C 250.237,365.167 249.904,469.833 250,574.5C 252.114,578.948 255.281,582.448 259.5,585C 267.5,585.667 275.5,585.667 283.5,585C 291.072,584.761 295.572,580.928 297,573.5C 297.602,495.499 298.268,417.499 299,339.5C 353.828,419.154 408.161,499.154 462,579.5C 503.667,635.5 545.333,691.5 587,747.5C 588.019,748.687 589.186,749.687 590.5,750.5C 592.662,748.98 594.995,747.98 597.5,747.5C 563.554,768.286 526.887,782.786 487.5,791C 471.137,794.504 454.804,797.337 438.5,799.5C 412.5,799.5 386.5,799.5 360.5,799.5C 222.333,781.712 118.167,713.046 48,593.5C 21.6269,544.555 5.46022,492.555 -0.5,437.5C -0.5,412.5 -0.5,387.5 -0.5,362.5C 14.8752,232.509 76.8752,131.676 185.5,60C 240.51,25.9412 300.177,5.77454 364.5,-0.5 Z"/></g>
<g><path style="opacity:1" fill="#fefffe" d="M 508.5,240.5 C 516.84,240.334 525.173,240.5 533.5,241C 538.573,242.406 542.073,245.572 544,250.5C 545.766,344.162 545.766,437.829 544,531.5C 528.333,507.5 512.667,483.5 497,459.5C 496.333,390.167 496.333,320.833 497,251.5C 499.437,246.226 503.271,242.56 508.5,240.5 Z"/></g>
<g><path style="opacity:1" fill="#fefffe" d="M 609.5,740.5 C 606.081,741.708 602.747,743.208 599.5,745C 598.619,745.708 597.953,746.542 597.5,747.5C 594.995,747.98 592.662,748.98 590.5,750.5C 589.186,749.687 588.019,748.687 587,747.5C 545.333,691.5 503.667,635.5 462,579.5C 408.161,499.154 353.828,419.154 299,339.5C 298.268,417.499 297.602,495.499 297,573.5C 295.572,580.928 291.072,584.761 283.5,585C 275.5,585.667 267.5,585.667 259.5,585C 255.281,582.448 252.114,578.948 250,574.5C 249.904,469.833 250.237,365.167 251,260.5C 253.455,255.851 257.288,253.017 262.5,252C 271.167,251.333 279.833,251.333 288.5,252C 292.906,252.119 296.406,253.953 299,257.5C 404.5,417 510,576.5 615.5,736C 612.894,736.792 610.894,738.292 609.5,740.5 Z"/></g>
<g><path style="opacity:0.621" fill="#000000" d="M 609.5,740.5 C 606.121,743.858 602.121,746.191 597.5,747.5C 597.953,746.542 598.619,745.708 599.5,745C 602.747,743.208 606.081,741.708 609.5,740.5 Z"/></g>
</svg>
