<?xml version="1.0" encoding="UTF-8"?>
<!DOCTYPE svg PUBLIC "-//W3C//DTD SVG 1.1//EN" "http://www.w3.org/Graphics/SVG/1.1/DTD/svg11.dtd">
<svg xmlns="http://www.w3.org/2000/svg" version="1.1" width="800px" height="672px" style="shape-rendering:geometricPrecision; text-rendering:geometricPrecision; image-rendering:optimizeQuality; fill-rule:evenodd; clip-rule:evenodd" xmlns:xlink="http://www.w3.org/1999/xlink">
<g><path style="opacity:0.999" fill="#8993bd" d="M 799.5,307.5 C 799.5,320.5 799.5,333.5 799.5,346.5C 791.979,378.036 776.312,404.87 752.5,427C 722.969,452.947 689.969,473.613 653.5,489C 583.526,516.862 510.86,532.195 435.5,535C 341.751,540.036 250.751,526.703 162.5,495C 116.54,478.288 76.0402,453.121 41,419.5C 24.4195,402.354 12.4195,382.354 5,359.5C -4.01948,326.303 0.313858,294.97 18,265.5C 37.3059,235.86 62.1392,212.027 92.5,194C 136.927,167.184 184.593,148.184 235.5,137C 357.599,109.843 478.932,112.843 599.5,146C 651.411,160.455 698.411,184.121 740.5,217C 770.145,240.823 789.812,270.99 799.5,307.5 Z"/></g>
<g><path style="opacity:1" fill="#232531" d="M 483.5,392.5 C 465.5,392.5 447.5,392.5 429.5,392.5C 429.5,391.5 429.5,390.5 429.5,389.5C 434.881,358.427 440.714,327.427 447,296.5C 448.331,289.541 448.664,282.541 448,275.5C 445.573,272.43 442.406,270.596 438.5,270C 422.5,269.333 406.5,269.333 390.5,270C 382.23,310.848 373.897,351.682 365.5,392.5C 348.5,392.5 331.5,392.5 314.5,392.5C 314.5,391.5 314.5,390.5 314.5,389.5C 328.192,317.04 342.525,244.707 357.5,172.5C 374.824,171.334 392.157,171.167 409.5,172C 405.39,190.719 401.723,209.553 398.5,228.5C 415.837,228.333 433.17,228.5 450.5,229C 466.866,229.786 481.366,235.286 494,245.5C 501.853,254.395 504.853,264.728 503,276.5C 496.39,315.162 489.89,353.829 483.5,392.5 Z"/></g>
<g><path style="opacity:1" fill="#232531" d="M 156.5,228.5 C 192.168,228.333 227.835,228.5 263.5,229C 307.421,234.012 327.255,258.512 323,302.5C 319.158,340.376 300.324,367.876 266.5,385C 257.519,388.882 248.186,391.549 238.5,393C 217.503,393.5 196.503,393.667 175.5,393.5C 171.686,412.42 168.353,431.42 165.5,450.5C 148.167,450.5 130.833,450.5 113.5,450.5C 127.574,376.462 141.908,302.462 156.5,228.5 Z"/></g>
<g><path style="opacity:1" fill="#232531" d="M 523.5,228.5 C 559.168,228.333 594.835,228.5 630.5,229C 675.058,234.596 694.891,259.762 690,304.5C 682.952,354.213 654.786,383.713 605.5,393C 584.503,393.5 563.503,393.667 542.5,393.5C 538.65,412.414 535.317,431.414 532.5,450.5C 515.167,450.5 497.833,450.5 480.5,450.5C 494.319,376.405 508.652,302.405 523.5,228.5 Z"/></g>
<g><path style="opacity:1" fill="#8891bc" d="M 220.5,351.5 C 209.5,351.5 198.5,351.5 187.5,351.5C 187.5,350.5 187.5,349.5 187.5,348.5C 191.293,322.073 195.627,295.74 200.5,269.5C 216.539,269.115 232.539,269.615 248.5,271C 265.302,275.499 271.802,286.332 268,303.5C 266.003,333.33 250.17,349.33 220.5,351.5 Z"/></g>
<g><path style="opacity:1" fill="#8891bc" d="M 587.5,351.5 C 576.116,352.144 565.116,351.477 554.5,349.5C 558.293,323.074 562.627,296.741 567.5,270.5C 581.822,269.334 596.155,269.167 610.5,270C 621.894,270.931 630.061,276.431 635,286.5C 636.909,302.808 633.909,318.141 626,332.5C 616.352,345.074 603.519,351.407 587.5,351.5 Z"/></g>
<g><path style="opacity:1" fill="#545a75" d="M 187.5,348.5 C 187.5,349.5 187.5,350.5 187.5,351.5C 198.5,351.5 209.5,351.5 220.5,351.5C 209.346,352.495 198.012,352.828 186.5,352.5C 186.232,350.901 186.566,349.568 187.5,348.5 Z"/></g>
<g><path style="opacity:1" fill="#545a75" d="M 554.5,349.5 C 565.116,351.477 576.116,352.144 587.5,351.5C 576.346,352.495 565.012,352.828 553.5,352.5C 553.263,351.209 553.596,350.209 554.5,349.5 Z"/></g>
<g><path style="opacity:1" fill="#4c516a" d="M 314.5,389.5 C 314.5,390.5 314.5,391.5 314.5,392.5C 331.5,392.5 348.5,392.5 365.5,392.5C 348.341,393.497 331.008,393.83 313.5,393.5C 313.232,391.901 313.566,390.568 314.5,389.5 Z"/></g>
<g><path style="opacity:1" fill="#4c516b" d="M 429.5,389.5 C 429.5,390.5 429.5,391.5 429.5,392.5C 447.5,392.5 465.5,392.5 483.5,392.5C 465.341,393.497 447.008,393.83 428.5,393.5C 428.232,391.901 428.566,390.568 429.5,389.5 Z"/></g>
</svg>
