<?xml version="1.0" encoding="UTF-8"?>
<!DOCTYPE svg PUBLIC "-//W3C//DTD SVG 1.1//EN" "http://www.w3.org/Graphics/SVG/1.1/DTD/svg11.dtd">
<svg xmlns="http://www.w3.org/2000/svg" version="1.1" width="821px" height="825px" style="shape-rendering:geometricPrecision; text-rendering:geometricPrecision; image-rendering:optimizeQuality; fill-rule:evenodd; clip-rule:evenodd" xmlns:xlink="http://www.w3.org/1999/xlink">
<g><path style="opacity:1" fill="#007acc" d="M 9.5,10.5 C 276.167,10.5 542.833,10.5 809.5,10.5C 809.5,277.167 809.5,543.833 809.5,810.5C 542.833,810.5 276.167,810.5 9.5,810.5C 9.5,543.833 9.5,277.167 9.5,10.5 Z"/></g>
<g><path style="opacity:1" fill="#fefefe" d="M 602.5,376.5 C 626.099,374.811 649.099,377.644 671.5,385C 694.171,395.507 711.505,411.673 723.5,433.5C 720.287,437.119 716.621,440.286 712.5,443C 698.004,452.749 683.337,462.249 668.5,471.5C 662.381,464.21 656.048,457.044 649.5,450C 643.992,446.246 637.992,443.58 631.5,442C 622.438,441.119 613.438,441.452 604.5,443C 587.501,450.832 581.001,463.998 585,482.5C 588.625,493.125 595.458,500.959 605.5,506C 630.833,518 656.167,530 681.5,542C 701.479,551.732 717.979,565.565 731,583.5C 748.455,615.559 751.122,648.892 739,683.5C 726.247,710.919 705.413,729.086 676.5,738C 649.623,745.597 622.289,747.597 594.5,744C 546.772,737.215 511.439,712.881 488.5,671C 507.891,658.549 527.724,646.716 548,635.5C 556.414,648.582 566.914,659.749 579.5,669C 601.889,681.82 625.223,683.82 649.5,675C 673.023,662.549 678.19,644.715 665,621.5C 657.997,614.833 650.164,609.333 641.5,605C 618.38,594.607 595.38,583.94 572.5,573C 517.344,542.146 499.177,496.312 518,435.5C 535.562,400.637 563.728,380.97 602.5,376.5 Z"/></g>
<g><path style="opacity:1" fill="#fefefe" d="M 467.5,385.5 C 467.5,405.5 467.5,425.5 467.5,445.5C 432.833,445.5 398.167,445.5 363.5,445.5C 363.5,544.167 363.5,642.833 363.5,741.5C 339.167,741.5 314.833,741.5 290.5,741.5C 290.5,642.833 290.5,544.167 290.5,445.5C 255.833,445.5 221.167,445.5 186.5,445.5C 186.5,423.833 186.5,402.167 186.5,380.5C 280.167,380.5 373.833,380.5 467.5,380.5C 467.5,382.167 467.5,383.833 467.5,385.5 Z"/></g>
<g><path style="opacity:1" fill="#459cd9" d="M 186.5,445.5 C 221.167,445.5 255.833,445.5 290.5,445.5C 290.5,544.167 290.5,642.833 290.5,741.5C 289.501,643.335 289.167,545.001 289.5,446.5C 254.996,446.832 220.663,446.498 186.5,445.5 Z"/></g>
<g><path style="opacity:1" fill="#70b4e2" d="M 467.5,385.5 C 468.497,405.66 468.83,425.993 468.5,446.5C 433.833,446.5 399.167,446.5 364.5,446.5C 364.833,545.001 364.499,643.335 363.5,741.5C 363.5,642.833 363.5,544.167 363.5,445.5C 398.167,445.5 432.833,445.5 467.5,445.5C 467.5,425.5 467.5,405.5 467.5,385.5 Z"/></g>
</svg>
