<?xml version="1.0" encoding="UTF-8"?>
<!DOCTYPE svg PUBLIC "-//W3C//DTD SVG 1.1//EN" "http://www.w3.org/Graphics/SVG/1.1/DTD/svg11.dtd">
<svg xmlns="http://www.w3.org/2000/svg" version="1.1" width="638px" height="640px" style="shape-rendering:geometricPrecision; text-rendering:geometricPrecision; image-rendering:optimizeQuality; fill-rule:evenodd; clip-rule:evenodd" xmlns:xlink="http://www.w3.org/1999/xlink">
<g><path style="opacity:0.999" fill="#dc6c77" d="M 106.5,104.5 C 110.1,102.57 113.1,99.9031 115.5,96.5C 131.575,79.7825 149.909,65.9492 170.5,55C 250.078,12.5367 332.745,5.53674 418.5,34C 468.291,51.8089 510.458,80.6423 545,120.5C 605.953,193.066 628.953,276.4 614,370.5C 589.641,487.407 521.141,565.573 408.5,605C 307.187,633.868 214.521,616.868 130.5,554C 39.7,476.296 3.86671,378.129 23,259.5C 35.1978,199.086 63.0311,147.419 106.5,104.5 Z M 258.5,75.5 C 259.239,75.369 259.906,75.5357 260.5,76C 236.491,115.011 218.491,156.678 206.5,201C 176.216,193.457 147.549,181.79 120.5,166C 156.591,120.746 202.591,90.5796 258.5,75.5 Z M 376.5,77.5 C 377.601,76.4017 378.934,76.235 380.5,77C 435.347,91.911 480.347,121.578 515.5,166C 488.985,181.231 460.985,193.064 431.5,201.5C 423.305,178.751 414.805,156.084 406,133.5C 396.917,114.329 387.084,95.6626 376.5,77.5 Z M 317.5,84.5 C 346.343,122.862 366.676,165.529 378.5,212.5C 339.853,217.595 301.186,217.762 262.5,213C 260.381,212.902 258.714,212.069 257.5,210.5C 270.059,164.751 290.059,122.751 317.5,84.5 Z M 92.5,210.5 C 125.097,228.65 159.43,242.816 195.5,253C 196.097,254.062 196.43,255.228 196.5,256.5C 191.215,298.382 191.215,340.215 196.5,382C 160.663,392.5 126.496,407 94,425.5C 65.932,365.889 61.5987,304.556 81,241.5C 84.8536,231.135 88.6869,220.802 92.5,210.5 Z M 539.5,211.5 C 541.167,211.5 542.833,211.5 544.5,211.5C 554.602,235.572 561.436,260.572 565,286.5C 570.641,334.653 563.307,380.653 543,424.5C 510.254,407.212 476.088,393.379 440.5,383C 439.903,381.938 439.57,380.772 439.5,379.5C 444.785,337.618 444.785,295.785 439.5,254C 456.671,248.609 473.671,242.609 490.5,236C 507.452,228.857 523.785,220.691 539.5,211.5 Z M 247.5,263.5 C 294.202,269.895 340.868,270.062 387.5,264C 389.5,271.666 390.667,279.5 391,287.5C 391.667,307.833 391.667,328.167 391,348.5C 390.561,356.241 389.561,363.908 388,371.5C 387.275,372.059 386.442,372.392 385.5,372.5C 354.004,367.821 322.337,366.321 290.5,368C 276.408,368.9 262.408,370.233 248.5,372C 245.135,355.722 243.802,339.222 244.5,322.5C 244.445,302.768 245.445,283.101 247.5,263.5 Z M 305.5,418.5 C 328.968,418.527 352.301,420.194 375.5,423.5C 377,423.453 378,424.119 378.5,425.5C 366.056,471.383 345.889,513.383 318,551.5C 289.494,512.949 269.66,470.449 258.5,424C 261.471,423.206 264.471,422.539 267.5,422C 280.32,420.849 292.986,419.683 305.5,418.5 Z M 258.5,559.5 C 202.365,545.181 156.365,515.347 120.5,470C 147.56,454.207 176.227,442.54 206.5,435C 218.749,478.66 236.083,520.16 258.5,559.5 Z M 496.5,491.5 C 492.5,494.833 488.833,498.5 485.5,502.5C 454.152,530.271 417.986,549.271 377,559.5C 388.633,538.901 399.299,517.568 409,495.5C 416.702,475.22 423.869,454.886 430.5,434.5C 460.261,443.051 488.595,454.885 515.5,470C 509.512,477.48 503.178,484.647 496.5,491.5 Z"/></g>
<g><path style="opacity:1" fill="#e79299" d="M 115.5,96.5 C 113.1,99.9031 110.1,102.57 106.5,104.5C 108.9,101.097 111.9,98.4302 115.5,96.5 Z"/></g>
<g><path style="opacity:1" fill="#e8979d" d="M 496.5,491.5 C 493.833,496.167 490.167,499.833 485.5,502.5C 488.833,498.5 492.5,494.833 496.5,491.5 Z"/></g>
</svg>
